P3 1 256 255
# The standard Slash'EM palette.
# Matches the colours in palette.txt (different order though).
# Currently all 256 colours are defined.
0 0 0
0 182 255
255 108 0
255 0 0
0 0 255
0 144 0
108 255 0
255 255 0
255 0 255
144 72 0
182 72 0
255 182 144
71 108 108
255 255 255
218 218 182
108 144 182
128 96 0
128 255 128
0 0 192
168 224 224
96 48 48
128 64 0
32 64 64
0 112 224
192 96 96
48 96 0
117 105 88
224 192 160
168 168 224
128 32 0
96 0 48
64 128 128
255 128 128
128 0 255
0 64 32
128 0 0
48 48 0
96 192 0
48 36 0
96 192 192
0 32 32
48 24 0
48 12 0
128 112 32
64 64 128
192 0 96
48 0 0
0 0 224
224 224 0
0 128 64
0 255 255
64 0 128
96 96 0
0 255 0
255 0 128
96 96 192
96 72 0
104 84 31
224 168 0
0 64 64
96 48 0
248 224 96
224 224 112
202 144 114
24 48 48
144 192 192
0 192 96
0 32 64
96 24 0
128 128 64
24 24 48
224 112 0
240 240 240
0 48 24
128 255 255
96 0 0
128 255 0
0 0 64
96 0 192
144 144 192
255 192 255
0 24 24
255 192 0
255 192 192
224 224 224
16 16 0
128 64 64
224 56 0
170 136 52
16 0 0
224 112 112
0 96 96
208 208 208
64 128 0
255 128 255
255 128 0
224 168 224
224 0 0
128 0 64
192 192 255
192 192 0
0 48 96
255 255 128
192 192 192
168 224 168
128 128 96
112 224 0
64 64 0
128 90 72
224 112 224
48 48 24
255 64 0
64 48 0
192 144 0
176 176 176
0 0 96
128 96 96
192 144 192
48 24 24
64 32 0
224 0 112
24 48 0
0 128 128
64 16 0
144 192 144
160 160 160
64 0 0
192 96 0
24 24 0
192 96 192
112 224 112
48 96 96
0 16 16
120 160 160
24 0 0
0 0 16
160 160 120
160 120 160
144 144 144
0 64 128
192 48 0
80 160 160
224 0 224
48 48 96
120 160 120
120 120 160
96 192 96
160 160 80
160 120 120
160 80 160
128 128 128
0 96 48
64 64 32
112 224 224
192 0 0
192 0 192
0 160 160
0 0 128
128 96 128
112 112 112
64 32 32
80 160 80
80 80 160
96 128 96
0 48 48
192 192 144
32 64 0
128 64 128
160 160 0
160 80 80
64 0 32
160 0 160
96 96 96
252 252 153
32 32 0
0 160 80
64 128 64
160 120 0
0 0 48
0 80 160
192 144 144
0 224 0
80 160 0
112 112 224
80 80 80
32 0 0
128 0 128
80 0 160
96 48 96
242 196 77
208 168 80
255 255 192
0 192 0
160 80 0
160 0 80
0 192 192
165 118 96
48 96 48
64 64 64
192 160 64
224 224 168
0 160 0
96 0 96
160 40 0
0 0 160
0 224 112
64 32 64
0 128 255
0 128 0
96 128 128
48 48 48
229 162 130
32 64 32
192 255 255
170 154 128
160 0 0
224 168 168
144 135 110
64 0 64
192 255 192
112 0 224
0 96 0
96 96 128
0 255 128
0 96 192
24 48 24
255 211 176
32 32 32
48 0 48
0 64 0
0 224 224
32 0 32
0 48 0
192 192 96
16 16 16
128 128 255
0 32 0
128 128 0
16 0 16
0 24 0
96 96 48
0 16 0
0 0 32
0 24 48
16 48 48
32 242 186
72 108 108
96 144 178
96 16 0
112 160 160
160 160 224
178 64 0
178 224 16
210 210 178
242 0 0
242 96 0
